<svg width="89" height="86" viewBox="0 0 89 86" fill="none" xmlns="http://www.w3.org/2000/svg">
<g id="Group 8">
<g id="Group 7">
<path id="Vector" d="M29.0674 47.9718L27.8476 44.8987L27.1165 40.7668H25.4046L24.9783 44.8987L22.2305 43.209L20.4603 40.7668H18.5677L19.8483 43.0266L16.4295 40.7668H14.2937L22.7792 47.9718L28.7035 51.1466L29.0674 47.9718Z" fill="#A0616A"/>
<path id="Vector_2" d="M27.8058 52.8755L47.44 60.1732C47.9297 60.355 48.4697 60.3475 48.9543 60.1521C49.4388 59.9568 49.8329 59.5875 50.0595 59.1168L54.7944 49.2052L54.8634 49.0566L55.1221 48.5169C55.0874 47.5414 55.0501 46.5661 55.0104 45.5909C54.8987 42.982 54.7935 41.2528 54.7935 41.2528C54.5644 38.1478 54.4001 35.2439 54.304 32.52C54.2407 32.5644 54.184 32.6046 54.1273 32.6465L54.1191 32.649C53.747 32.9086 53.4612 33.1369 53.3519 33.3037C52.942 33.9173 46.6177 48.7107 45.2763 51.8519C45.2101 52.0085 45.0853 52.1329 44.9285 52.1986C44.7718 52.2643 44.5956 52.2661 44.4376 52.2035L30.1994 46.6086C30.045 46.5476 29.8799 46.5179 29.7139 46.5212C29.5478 46.5244 29.384 46.5606 29.2321 46.6276C29.0801 46.6946 28.9429 46.7911 28.8285 46.9115C28.7141 47.0319 28.6247 47.1739 28.5656 47.3291L27.0689 51.2498C27.0094 51.4048 26.9813 51.5701 26.9861 51.7361C26.991 51.9021 27.0288 52.0655 27.0974 52.2167C27.1659 52.368 27.2639 52.5041 27.3855 52.6172C27.5071 52.7303 27.6499 52.818 27.8058 52.8755Z" fill="#E6E6E6"/>
<path id="Vector_3" d="M19.8342 26.1541C19.8342 26.6447 20.0291 27.1152 20.3761 27.4622C20.723 27.8091 21.1935 28.004 21.6841 28.004C22.1747 28.004 22.6453 27.8091 22.9922 27.4622C23.3391 27.1152 23.534 26.6447 23.534 26.1541C23.5336 25.6636 23.3386 25.1933 22.9917 24.8465C22.6449 24.4997 22.1746 24.3046 21.6841 24.3042C21.4411 24.304 21.2005 24.3517 20.976 24.4446C20.7514 24.5375 20.5474 24.6737 20.3756 24.8455C20.2038 25.0174 20.0675 25.2214 19.9746 25.4459C19.8817 25.6705 19.834 25.9111 19.8342 26.1541Z" fill="#1A1A1A"/>
<path id="Vector_4" d="M21.6884 26.9119C28.9163 26.9119 34.7782 32.7721 34.7782 40.0016H8.59619C8.59619 32.7729 14.458 26.9119 21.6884 26.9119Z" fill="#FF6711"/>
<path id="Vector_5" d="M24.8298 38.7881H43.369L41.9036 40.7669H1.46299L0 38.7881H24.8298Z" fill="#1A1A1A"/>
</g>
<path id="Vector_6" d="M59.4563 29.7338L58.2375 22.1167L66.4641 18.7651L67.6828 30.3432L59.4563 29.7338Z" fill="#A0616A"/>
<path id="Vector_7" d="M58.106 28.8562L67.6038 26.2585L77.3949 30.2549L81.5911 63.4249L57.6128 64.2242V58.8739C57.6128 58.8739 55.1599 53.404 57.5129 46.1405C59.8108 39.047 55.0151 38.4475 55.0151 38.4475L58.106 28.8562Z" fill="#E6E6E6"/>
<path id="Vector_8" d="M53.7163 42.3438L72.4993 41.3447L77.5947 55.8316C77.5947 55.8316 80.6919 65.7227 81.691 72.1169C82.6901 78.5111 85.2878 86.3041 85.2878 86.3041H55.2173L54.3158 59.9279L53.7163 42.3438Z" fill="#3F3D56"/>
<path id="Vector_9" d="M72.6991 26.3584H68.1033V43.343H72.6991V26.3584Z" fill="#3F3D56"/>
<path id="Vector_10" d="M58.5121 30.155H53.9163V44.1424H58.5121V30.155Z" fill="#3F3D56"/>
<path id="Vector_11" d="M61.3142 24.5323C67.117 24.5323 71.8212 19.8282 71.8212 14.0253C71.8212 8.22246 67.117 3.51831 61.3142 3.51831C55.5113 3.51831 50.8071 8.22246 50.8071 14.0253C50.8071 19.8282 55.5113 24.5323 61.3142 24.5323Z" fill="#A0616A"/>
<path id="Vector_12" d="M71.6489 19.7251C71.6489 19.7251 66.5655 13.625 64.5321 14.1334C62.4988 14.6417 63.7696 15.4042 63.7696 15.4042L58.6862 9.81248C58.6862 9.81248 54.6195 8.28746 50.807 13.1167C50.807 13.1167 48.5194 9.04997 50.807 6.76244C53.0945 4.47491 53.857 4.72908 54.3653 3.45823C54.8737 2.18738 58.4321 1.1707 58.4321 1.1707C58.4321 1.1707 58.2279 -0.65852 59.3467 0.256091C60.4654 1.1707 63.2593 1.1707 63.2593 1.1707C63.2593 1.1707 63.2753 0.154023 64.4121 1.1707C65.5488 2.18738 66.8197 1.67904 66.8197 1.67904C66.8197 1.67904 66.8197 3.43822 67.7093 3.44822C68.5989 3.45823 70.1239 2.18738 70.378 3.20406C70.6322 4.22074 72.4114 4.72908 72.6656 7.77912C72.9197 10.8292 71.6489 19.7251 71.6489 19.7251Z" fill="#2F2E41"/>
<path id="uuid-f7f7485f-a1d4-48b6-9f93-907c0610bac7-1675" d="M58.1495 71.7453C55.8035 72.8169 53.349 72.475 52.6673 70.9819C51.9856 69.4888 53.3348 67.4103 55.6817 66.3387C56.6133 65.8977 57.637 65.6863 58.6671 65.7221L68.6643 61.3074L70.636 66.0429L60.5712 69.8923C59.9235 70.6945 59.0931 71.3299 58.1495 71.7453Z" fill="#A0616A"/>
<path id="Vector_13" d="M78.4822 29.4767C80.9598 29.1832 83.2411 30.8578 83.7027 33.3096C85.3489 42.055 88.8454 60.9663 88.385 61.4267C87.7855 62.0262 65.4058 68.6202 65.4058 68.6202L62.8081 63.0253L77.5947 55.8318L74.3518 34.9151C73.9401 32.2597 75.8138 29.7927 78.4822 29.4767Z" fill="#E6E6E6"/>
</g>
</svg>
