<svg width="267" height="150" viewBox="0 0 267 150" fill="none" xmlns="http://www.w3.org/2000/svg">
<g clip-path="url(#clip0_273_1517)">
<path opacity="0.1" d="M165.333 0.875C141.236 0.875 119.875 12.4444 106.639 30.2778C99.6666 27.375 92.0139 25.7778 83.9722 25.7778C51.6666 25.7778 25.4861 51.6528 25.4861 83.5556C25.4861 115.458 51.6666 141.333 83.9722 141.333C97.5833 141.333 110.111 136.736 120.056 129.028C132.486 138.806 148.222 144.639 165.333 144.639C205.514 144.639 238.097 112.458 238.097 72.75C238.097 33.0417 205.514 0.875 165.333 0.875Z" fill="#2A94F4"/>
<path opacity="0.1" d="M129.042 150C185.467 150 231.208 144.808 231.208 138.403C231.208 131.998 185.467 126.806 129.042 126.806C72.6166 126.806 26.875 131.998 26.875 138.403C26.875 144.808 72.6166 150 129.042 150Z" fill="#2A94F4"/>
<path d="M52.0972 27.4861C52.0972 27.4861 53.3611 26.6806 52.9999 24.7639C52.6388 22.8472 51.6805 20.375 48.7361 20.9861C45.7916 21.5972 45.9166 22.0972 44.7777 20.8889C43.6388 19.6944 39.7083 22.4167 40.5972 23.7222C41.0138 24.3472 41.1944 25.5417 39.4722 26.2639C37.7499 26.9861 37.5694 31.3194 40.9166 30.8472C41.7638 30.7222 41.7083 32.0139 41.2499 32.5139C40.2361 33.625 42.6666 36.4722 44.5277 34.4305C46.4027 32.3889 52.0972 27.4861 52.0972 27.4861Z" fill="#0B4870"/>
<path d="M62.6389 142.597H209.208C214.5 142.597 218.778 138.306 218.778 133.028V51.9028C218.778 46.6111 214.486 42.3333 209.208 42.3333H62.6389C57.3472 42.3333 53.0695 46.625 53.0695 51.9028V133.028C53.0695 138.306 57.3611 142.597 62.6389 142.597Z" fill="#FFBE55"/>
<path d="M218.785 79.2886L53.063 79.2886V55.8997L218.785 55.8997V79.2886Z" fill="#0E538C"/>
<path d="M177.655 98.6564L61.0581 98.6564V92.8508L177.655 92.8508V98.6564Z" fill="#F7F7F7"/>
<path d="M146.673 107.898L61.062 107.898V103.509L146.673 103.509V107.898Z" fill="#F7F7F7"/>
<path d="M146.673 117.147L61.062 117.147V112.758L146.673 112.758V117.147Z" fill="#F7F7F7"/>
<path d="M51.2638 131.653L50.7083 136.569H47.2638V131L51.2638 131.653ZM37.8472 131.653L37.2916 136.569H33.8472V131L37.8472 131.653Z" fill="#FCD2B1"/>
<path d="M49 36.2639C48.8889 37.9028 48.2084 39.3334 47.4861 39.4028H45.4306C44.7084 39.3334 44.0139 37.9167 43.9167 36.2639C43.75 33.5556 44.1111 32.5972 43.9306 29.8889C43.8195 28.2639 49.625 26.5139 49.5139 28.1389C49.3472 30.8472 49.1806 33.5556 49 36.2639ZM59.8472 35.7083C59.8472 35.7083 63.375 36.2639 64.8195 36.625C68.8334 37.6111 70.3472 39.4722 71.3195 40.3611C72.2917 41.25 70.1528 41.3611 69.0695 42.1667C67.9861 42.9722 59.1945 40.6389 57.3472 39.5695C55.5139 38.4861 58.6528 35.7083 59.8472 35.7083Z" fill="#F7D9C1"/>
<path d="M46.9028 38.5833C49.4167 38.0416 49 35.5972 49 35.5972C49 35.5972 55.1805 34.2639 58.5417 35.0555C61.9028 35.8472 63.4167 36.2778 63.7361 36.3889C64.0555 36.5 61.1389 36.875 60.1667 40.3889C59.1944 43.9028 58.9444 44.4722 58.9444 44.4722L56.6944 44.1389C56.6944 44.1389 55.2083 72.5 54.6667 75.2222C54.125 77.9444 42.7778 78.8611 38.0694 76.1805C38.0694 76.1805 37.6528 64.8611 37.6528 49.4166L37.4305 36.7639C37.4305 36.7639 42.7083 36.2778 43.9028 36.2778C43.9167 36.2639 43.8611 39.2361 46.9028 38.5833Z" fill="#2A94F4"/>
<path d="M70.7361 39.8055C69.5 38.8889 68.3889 39.0694 64.2361 40.3611C58.7084 42.0833 56.875 42.7778 56.0278 43.1389C55.1806 43.5139 54.6667 44.7083 54.2361 46.0972C53.8056 47.4861 54.5417 48.375 54.5417 48.6666C54.5417 48.8472 55.6806 49.375 56.5278 49.4028C57.0417 49.4166 57.25 48.6666 56.8056 46.7083C56.1945 44.0139 65.4722 43.8472 66.7639 43.6666C68.0139 43.4861 73.6389 41.9722 70.7361 39.8055ZM26.8889 59.7916C26.8889 56.4166 32.1528 45.9166 32.1528 45.9166C32.1528 45.8889 32.1667 45.875 32.1667 45.8472V45.8333C32.1667 45.8194 32.1806 45.8055 32.1806 45.7916C32.1806 45.7916 32.1806 45.7778 32.1945 45.7778C32.1945 45.7639 32.2084 45.7639 32.2084 45.75L32.2222 45.7361L32.2361 45.7222C32.2361 45.7222 32.25 45.7222 32.25 45.7083C32.2639 45.7083 32.2639 45.6944 32.2778 45.6944H32.4028C32.4167 45.6944 32.4167 45.6944 32.4306 45.7083C32.4445 45.7083 32.4445 45.7083 32.4584 45.7222C32.4722 45.7222 32.4861 45.7361 32.4861 45.7361C32.5 45.7361 32.5 45.75 32.5139 45.75C32.5278 45.75 32.5417 45.7639 32.5556 45.7639C32.5695 45.7639 32.5834 45.7778 32.5834 45.7778C32.5972 45.7916 32.6111 45.7916 32.625 45.8055C32.6389 45.8194 32.6528 45.8194 32.6528 45.8333C32.6667 45.8472 32.6806 45.8472 32.6945 45.8611C32.7084 45.875 32.7222 45.875 32.7361 45.8889C32.75 45.9028 32.7639 45.9166 32.7778 45.9166C32.7917 45.9305 32.8056 45.9305 32.8195 45.9444L32.8611 45.9861C32.875 46 32.8889 46.0139 32.9028 46.0139L32.9445 46.0555L32.9861 46.0972C33 46.1111 33.0139 46.125 33.0417 46.1389L33.0834 46.1805L33.1389 46.2361L33.1806 46.2778L33.2361 46.3333L33.2778 46.375C33.2917 46.4028 33.3195 46.4166 33.3334 46.4444L33.375 46.4861C33.3889 46.5139 33.4167 46.5278 33.4306 46.5555L33.4722 46.5972C33.5 46.625 33.5139 46.6528 33.5417 46.6805L33.5834 46.7222C33.6111 46.75 33.625 46.7778 33.6528 46.8055C33.6667 46.8194 33.6667 46.8333 33.6806 46.8472C33.7084 46.875 33.7361 46.9166 33.7639 46.9444C33.7778 46.9583 33.7778 46.9722 33.7917 46.9722C33.8195 47.0139 33.8472 47.0416 33.875 47.0833C33.875 47.0972 33.8889 47.0972 33.8889 47.1111C33.9167 47.1528 33.9584 47.1944 33.9861 47.25C35.3195 49.0416 36 50.8055 35.4861 51.5972C34.7917 52.6805 30.9167 58.1666 31.8056 60.1389C32.6945 62.125 38.1111 70.2083 38.1111 70.2083L37.2917 72.7361C37.2778 72.7639 26.8889 64.4861 26.8889 59.7916Z" fill="#FFE3CA"/>
<path d="M38.7361 37.0417C38.7361 37.0417 36.9305 35.0695 34.375 39.9722C32.8472 42.9028 31.5555 45.9306 30.5416 48.625C30.5416 48.625 34.4722 55.2917 36.2083 52.4445C36.7083 51.625 38.0277 49.6806 38.4027 48.7778C40.5972 43.3611 38.7361 37.0417 38.7361 37.0417Z" fill="#2A94F4"/>
<path d="M51.0278 23.7222C51.6111 24.5972 51.875 27.4167 51.6806 28.6111C50.9584 33.1806 49.1111 36.2222 44.0139 32.375C42.9167 31.5417 42.8056 29.9306 42.625 29.6945C42.4445 29.4583 41.125 29.0972 41.25 27.2917C41.375 25.4861 42.6111 26.4167 42.8473 27.6945L43.4861 28.7778C43.5417 28.8611 43.625 28.9167 43.7223 28.9306C43.9167 28.9445 44.0834 28.7639 44.0417 28.5695L43.6111 26.6528C43.6111 26.6528 45.4167 27.3889 46.0973 25.75C46.7778 24.1111 48.9861 27.1945 49.9028 25.0278L51.0278 23.7222Z" fill="#FFE3CA"/>
<path d="M46.75 136.083H47.2638C47.2638 136.083 49.1666 137.014 50.7638 136.083H51.4583L51.8194 137.139C51.8194 137.139 52.5277 138.681 55.3611 137.861C57.2638 137.306 58.25 139.333 58.3055 141.25H46.75V136.083ZM33.2916 136.083H33.8055C33.8055 136.083 35.7083 137.014 37.3055 136.083H38L38.3611 137.139C38.3611 137.139 39.0694 138.681 41.9027 137.861C43.8055 137.306 44.7916 139.333 44.8472 141.25H33.2916V136.083ZM55.1666 71.3611C55.1666 71.3611 55.3472 101.694 54.8611 109.083C54.375 116.472 51.7361 132.75 51.7361 132.75H46.6805C46.6805 132.75 48.0694 109.986 48.0694 107.819C48.0694 105.653 46.0833 86.2778 44.1666 85.8889C42.3611 85.5278 42.4027 101.375 42.3055 107.861C42.2083 114.347 38.0833 132.736 38.0833 132.736H33.3055C33.3055 132.736 35.9166 115.181 35.4722 106.903C35.2361 102.389 34.9444 95 35.0138 87.5694C35.0694 81.375 37.9861 71.9722 37.9861 71.9722L55.1666 71.3611Z" fill="#0B4870"/>
<path d="M37.8888 68.8056C38.3333 68.9722 38.3055 68.9445 38.3055 68.9445C38.3055 68.9445 42.5277 71.5278 39.9305 74.3333C39.0416 75.2917 37.8055 74.5833 37.3472 73.5L37.0972 72.9028C37.0972 72.8889 37.4583 68.625 37.8888 68.8056Z" fill="#FFE3CA"/>
<path d="M192.954 19.9778C192.954 28.525 186.025 35.4549 177.477 35.4549C168.929 35.4549 162 28.525 162 19.9778C162 11.4299 168.929 4.5 177.477 4.5C186.025 4.5 192.954 11.4299 192.954 19.9778Z" fill="#009951"/>
<path fill-rule="evenodd" clip-rule="evenodd" d="M189.567 17.5543L171.464 28.7833L165.284 19.1498L168.846 16.8645L172.775 22.9892L187.336 13.9578L189.567 17.5543Z" fill="white"/>
</g>
<defs>
<clipPath id="clip0_273_1517">
<rect width="266.667" height="150" fill="white"/>
</clipPath>
</defs>
</svg>
