<svg width="37" height="36" viewBox="0 0 37 36" fill="none" xmlns="http://www.w3.org/2000/svg">
<g id="waiter 1">
<path id="Vector" d="M18.5 26.4375C18.3508 26.4375 18.2077 26.4968 18.1023 26.6023C17.9968 26.7077 17.9375 26.8508 17.9375 27C17.9375 27.1492 17.9968 27.2923 18.1023 27.3977C18.2077 27.5032 18.3508 27.5625 18.5 27.5625C18.6492 27.5625 18.7923 27.5032 18.8977 27.3977C19.0032 27.2923 19.0625 27.1492 19.0625 27C19.0625 26.8508 19.0032 26.7077 18.8977 26.6023C18.7923 26.4968 18.6492 26.4375 18.5 26.4375ZM18.5 30.9375C18.3508 30.9375 18.2077 30.9968 18.1023 31.1023C17.9968 31.2077 17.9375 31.3508 17.9375 31.5C17.9375 31.6492 17.9968 31.7923 18.1023 31.8977C18.2077 32.0032 18.3508 32.0625 18.5 32.0625C18.6492 32.0625 18.7923 32.0032 18.8977 31.8977C19.0032 31.7923 19.0625 31.6492 19.0625 31.5C19.0625 31.3508 19.0032 31.2077 18.8977 31.1023C18.7923 30.9968 18.6492 30.9375 18.5 30.9375ZM18.5 28.6875C18.3508 28.6875 18.2077 28.7468 18.1023 28.8523C17.9968 28.9577 17.9375 29.1008 17.9375 29.25C17.9375 29.3992 17.9968 29.5423 18.1023 29.6477C18.2077 29.7532 18.3508 29.8125 18.5 29.8125C18.6492 29.8125 18.7923 29.7532 18.8977 29.6477C19.0032 29.5423 19.0625 29.3992 19.0625 29.25C19.0625 29.1008 19.0032 28.9577 18.8977 28.8523C18.7923 28.7468 18.6492 28.6875 18.5 28.6875Z" fill="white"/>
<path id="Vector_2" d="M21.875 21.375H21.3125V19.7775C22.4061 19.287 23.3193 18.4671 23.9243 17.4324C24.5294 16.3977 24.7962 15.1999 24.6875 14.0062C25.0633 13.9289 25.4193 13.7752 25.7333 13.5547C26.0474 13.3342 26.3128 13.0515 26.5132 12.7243C26.7136 12.397 26.8446 12.0321 26.8983 11.6522C26.9519 11.2722 26.927 10.8853 26.825 10.5154C28.04 8.9685 27.5247 6.31687 25.8125 5.43206C25.8578 4.88606 25.7899 4.33659 25.6129 3.81807C25.436 3.29956 25.1538 2.82319 24.7841 2.41882C24.4145 2.01445 23.9653 1.69081 23.4647 1.46817C22.9641 1.24553 22.4229 1.1287 21.875 1.125H15.125C14.5771 1.1287 14.0359 1.24553 13.5353 1.46817C13.0347 1.69081 12.5855 2.01445 12.2158 2.41882C11.8462 2.82319 11.564 3.29956 11.3871 3.81807C11.2101 4.33659 11.1422 4.88606 11.1875 5.43206C9.47525 6.31631 8.96 8.97019 10.175 10.5154C10.0732 10.8853 10.0484 11.2721 10.1021 11.652C10.1558 12.0318 10.2869 12.3966 10.4873 12.7238C10.6876 13.051 10.953 13.3335 11.267 13.554C11.5809 13.7745 11.9368 13.9282 12.3125 14.0057C12.2039 15.1993 12.4707 16.3971 13.0758 17.4318C13.6808 18.4665 14.5939 19.2863 15.6875 19.7769V21.375C14.6828 21.3057 13.6746 21.4431 12.725 21.7788C11.7755 22.1144 10.9049 22.6411 10.1669 23.3264C9.42891 24.0116 8.83923 24.8409 8.43429 25.763C8.02934 26.6851 7.81773 27.6804 7.8125 28.6875V34.3125C7.8125 34.4617 7.87176 34.6048 7.97725 34.7102C8.08274 34.8157 8.22582 34.875 8.375 34.875H28.625C28.7742 34.875 28.9173 34.8157 29.0227 34.7102C29.1282 34.6048 29.1875 34.4617 29.1875 34.3125V28.6875C29.1853 26.7488 28.4141 24.8901 27.0433 23.5192C25.6724 22.1484 23.8137 21.3772 21.875 21.375ZM21.5341 22.5585C21.9363 22.7492 21.8491 23.2498 21.875 23.6138C21.8621 23.8838 21.9172 24.5166 21.5263 24.6712C21.1381 24.9086 20.561 24.3518 20.1054 24.1324C20.2113 23.7947 20.2113 23.4328 20.1054 23.0951C20.5627 22.8774 21.1393 22.3245 21.5341 22.5585ZM11.9536 6.31238C12.4458 6.15712 12.2906 5.44331 12.3125 5.0625C12.3134 4.31685 12.61 3.602 13.1372 3.07475C13.6645 2.5475 14.3794 2.25089 15.125 2.25H21.875C22.6206 2.25089 23.3355 2.5475 23.8628 3.07475C24.39 3.602 24.6866 4.31685 24.6875 5.0625V5.78813C24.6875 5.9015 24.7218 6.01222 24.7858 6.10577C24.8499 6.19932 24.9407 6.27133 25.0464 6.31238C27.0466 7.04475 26.6866 10.656 24.4062 10.6875C24.0066 10.673 23.6208 10.5376 23.2996 10.2993C22.9785 10.061 22.7371 9.73096 22.6074 9.35269C22.5536 9.23193 22.4622 9.13181 22.3468 9.06724C22.2315 9.00266 22.0983 8.97711 21.9673 8.99437C20.4195 9.00878 18.8761 8.82849 17.3733 8.45775C16.1696 8.08931 15.5643 7.81144 15.1087 7.17638C15.0729 7.03144 14.981 6.90667 14.8532 6.8295C14.7254 6.75234 14.5722 6.7291 14.4272 6.76491C14.2823 6.80071 14.1575 6.89262 14.0803 7.02042C14.0032 7.14822 13.9799 7.30144 14.0157 7.44637C14.1171 7.76195 14.3015 8.04445 14.5496 8.26425C14.6969 9.43256 13.7508 10.7224 12.5938 10.6875C10.3156 10.656 9.95056 7.04531 11.9536 6.31238ZM13.4375 14.625V13.5C13.4375 13.3508 13.3782 13.2077 13.2727 13.1023C13.1673 12.9968 13.0242 12.9375 12.875 12.9375C12.4628 12.937 12.065 12.7859 11.7564 12.5127C11.4478 12.2394 11.2497 11.8627 11.1993 11.4536C13.046 12.5111 15.3843 11.1172 15.6431 9.01181C17.5274 9.86344 19.202 10.0243 21.7203 10.1154C21.8949 10.4762 22.1404 10.798 22.4421 11.0619C22.7438 11.3257 23.0955 11.526 23.4763 11.651C23.8571 11.7759 24.2592 11.8229 24.6585 11.7891C25.0579 11.7552 25.4463 11.6414 25.8007 11.4542C25.7502 11.8632 25.5521 12.2397 25.2435 12.5129C24.9349 12.786 24.5371 12.937 24.125 12.9375C23.9758 12.9375 23.8327 12.9968 23.7273 13.1023C23.6218 13.2077 23.5625 13.3508 23.5625 13.5V14.625C23.561 15.818 23.0864 16.9617 22.2428 17.8053C21.3992 18.6489 20.2555 19.1235 19.0625 19.125H17.9375C16.7445 19.1235 15.6008 18.6489 14.7572 17.8053C13.9136 16.9617 13.439 15.818 13.4375 14.625ZM17.9375 20.25C18.6894 20.286 19.443 20.2479 20.1875 20.1364V21.7474L19.4045 22.2007C19.1357 22.024 18.821 21.9298 18.4993 21.9296C18.1776 21.9294 17.8629 22.0233 17.5938 22.1996L16.8125 21.7479V20.1369C17.1828 20.2123 17.5597 20.2502 17.9375 20.25ZM18.0714 23.9777C17.9757 23.864 17.929 23.717 17.9418 23.5689C17.9545 23.4209 18.0255 23.2839 18.1392 23.1882C18.2528 23.0925 18.3999 23.0459 18.5479 23.0586C18.696 23.0713 18.8329 23.1423 18.9286 23.256C19.0243 23.3697 19.071 23.5167 19.0582 23.6648C19.0455 23.8128 18.9745 23.9498 18.8608 24.0455C18.7472 24.1412 18.6001 24.1878 18.4521 24.1751C18.304 24.1624 18.1671 24.0914 18.0714 23.9777ZM16.8946 24.1324C16.4317 24.3563 15.8647 24.9075 15.4738 24.6718C15.0884 24.5199 15.1351 23.8899 15.125 23.6138C15.0929 23.0186 15.2296 22.2452 16.0081 22.5816L16.8946 23.0951C16.7887 23.4328 16.7887 23.7947 16.8946 24.1324ZM28.0625 33.75H8.9375V28.6875C8.9399 27.2236 9.46085 25.8079 10.4079 24.6917C11.355 23.5754 12.6669 22.8308 14.1108 22.59C13.977 23.1748 13.956 23.7798 14.0489 24.3726C14.0852 24.6487 14.1888 24.9116 14.3508 25.1382C14.5127 25.3647 14.7279 25.5479 14.9774 25.6716C15.227 25.7952 15.5031 25.8555 15.7814 25.8471C16.0598 25.8388 16.3318 25.762 16.5734 25.6236L17.5921 25.0273C17.8623 25.2036 18.1779 25.2976 18.5005 25.2977C18.8231 25.2978 19.1387 25.204 19.409 25.0279L20.4254 25.623C20.6663 25.7612 20.9374 25.8381 21.215 25.8469C21.4925 25.8558 21.768 25.7964 22.0172 25.6739C22.2664 25.5515 22.4817 25.3697 22.6443 25.1445C22.8068 24.9194 22.9116 24.6578 22.9494 24.3827C23.0446 23.787 23.0244 23.1786 22.8898 22.5906C24.3335 22.8315 25.6452 23.5761 26.5921 24.6922C27.5391 25.8083 28.06 27.2238 28.0625 28.6875V33.75Z" fill="white"/>
</g>
</svg>
